<svg id="Assura_Logo" data-name="Assura Logo" xmlns="http://www.w3.org/2000/svg" viewBox="0 0 1000 153.34"><defs><style>.cls-1{fill:#e62d0a;}</style></defs><title>Assura_Logo_RGB_Rouge</title><path class="cls-1" d="M154.69,136.73c-9.52-.83-10.37-3.9-10.37-33.61V4.74S114.26,1.84,88.57.29C36.4-2.86,0,19.78,0,75.42c0,49.2,23,77.92,59,77.92,17.12,0,30.43-9.15,38.92-18.57l3.88,13.56h59.43V137.16ZM96.33,120c-36.56,18.23-51.41-11.74-51.41-44.53,0-32,6.95-66.56,51.41-57.34Zm202.8-16.38c0,29.76-25.6,49.77-63.76,49.77-23.22,0-45.32-6.8-56.77-12.92V99.23h9.8c15.13,32.44,31.23,37.86,45.9,37.86,12.76,0,20-6.22,20-13.7,0-27.83-77.07-26.84-77.07-75.59C177.22,19.86,201.83,0,238.45,0c20.52,0,33.18,4.1,50.33,16.06V52.7h-9.9c-7.64-29.36-19.61-36.77-36.49-36.77-8,0-20.06,2.38-20.06,15C222.33,56.32,299.13,55,299.13,103.57Zm137.83,0c0,29.76-25.6,49.77-63.76,49.77-23.22,0-45.32-6.8-56.78-12.92V99.23h9.8c15.14,32.44,31.23,37.86,45.9,37.86,12.76,0,20-6.22,20-13.7C392.12,95.56,315,96.55,315,47.8,315,19.86,339.65,0,376.28,0c20.52,0,33.18,4.1,50.33,16.06V52.7h-9.9c-7.65-29.36-19.61-36.77-36.49-36.77-8,0-20.06,2.38-20.06,15C360.16,56.32,437,55,437,103.57Zm475.26,33.16c-9.53-.83-10.37-3.9-10.37-33.61V4.74S871.79,1.84,846.09.29c-52.16-3.15-88.57,19.49-88.57,75.13,0,49.2,23,77.92,59,77.92,17.12,0,30.42-9.15,38.91-18.57l3.88,13.56h59.43V137.16ZM853.86,120c-36.57,18.23-51.41-11.74-51.41-44.53,0-32,6.94-66.56,51.41-57.34ZM966.49,86.3c19,0,33.51,14.39,33.51,33.68,0,19-14.5,33.36-33.51,33.36S933,139,933,120c0-19.29,14.5-33.68,33.52-33.68m-327.69,62h64.85V137.16l-6.49-.43c-9.52-.83-10.37-3.9-10.37-33.61V62.33c6.34-15.19,16.91-21.68,31.52-21.68,10.28,0,19.84,4.19,25.92,7.18l15.34-40.1C755.63,5.4,743.57,0,729.08,0c-20.57,0-33.27,12.55-42.29,42.28V4.74H624.55v12l4.6.92c4.6.92,9.65,3.74,9.65,11.92Zm-177-42.52c0,36.44,21.64,47.52,45.74,47.52,24.61,0,33.48-8.58,47.35-18.57l3.87,13.56h59.43V137.16l-6.49-.43c-9.52-.83-10.37-3.9-10.37-33.61V4.74H539.09v12l4.6.92c4.61.92,9.65,3.74,9.65,11.92V120s-16,5.58-25.5,5.58c-11.21,0-18.05-8.3-18.05-26.23V4.74H447.54v12l4.61.92c4.6.92,9.65,3.74,9.65,11.92Z" transform="translate(0 0)"/></svg>