<?xml version="1.0" encoding="utf-8"?>
<!-- Generator: Adobe Illustrator 26.1.0, SVG Export Plug-In . SVG Version: 6.00 Build 0)  -->
<svg version="1.1" id="CONCORDIA_Claim" xmlns="http://www.w3.org/2000/svg" xmlns:xlink="http://www.w3.org/1999/xlink" x="0px"
	 y="0px" width="142.2px" height="33.6px" viewBox="0 0 142.2 33.6" style="enable-background:new 0 0 142.2 33.6;"
	 xml:space="preserve">
<style type="text/css">
	.Grün_x0020_bogenförmig{fill:url(#SVGID_1_);stroke:#FFFFFF;stroke-width:0.25;stroke-miterlimit:1;}
	.st0{fill:#507387;}
	.st1{fill:#FF8A00;}
</style>
<linearGradient id="SVGID_1_" gradientUnits="userSpaceOnUse" x1="-2.5858" y1="294.9478" x2="-1.8787" y2="294.2407">
	<stop  offset="0" style="stop-color:#1BA138"/>
	<stop  offset="0.9831" style="stop-color:#23391D"/>
</linearGradient>
<path class="st0" d="M13.8,21.5c0,5.7,2.5,12.1,9,12.1c6.4,0,9-6.4,9-12.1c0-5.7-2.5-12.1-9-12.1C16.3,9.4,13.8,15.8,13.8,21.5z
	 M20,21.5c0-1.5,0.4-6.2,2.8-6.2c2.4,0,2.8,4.8,2.8,6.2s-0.4,6.2-2.8,6.2C20.4,27.7,20,23,20,21.5z"/>
<path class="st0" d="M63.9,21.5c0,5.7,2.5,12.1,9,12.1c6.4,0,9-6.4,9-12.1c0-5.7-2.5-12.1-9-12.1C66.5,9.4,63.9,15.8,63.9,21.5z
	 M70.1,21.5c0-1.5,0.4-6.2,2.8-6.2c2.4,0,2.8,4.8,2.8,6.2s-0.4,6.2-2.8,6.2C70.5,27.7,70.1,23,70.1,21.5z"/>
<path class="st0" d="M38.8,26.4v6.9h-6V9.8h6l4.5,12.6l0,0c0,0-0.1-3.9-0.1-6.6v-6h5.9v23.5h-5.9l-4.4-12.5L38.8,26.4z"/>
<path class="st0" d="M99.8,33.2l-5-9.8c2.5-1,3.9-3.3,3.9-5.9c0-6.2-4.2-7.8-9.7-7.8h-6v23.5h6.2V27c0-1.2-0.1-2.3-0.1-3.5l0.1-0.1
	l3.7,9.8L99.8,33.2z M89.2,20.6v-5.8c1.7-0.1,3.2,0.8,3.2,2.8c0,1.5-1.1,3-2.8,3L89.2,20.6z"/>
<path class="st0" d="M100.1,33.2h5.4c3.9,0,10.7-1,10.7-11.8c0-7.1-2.9-11.7-10.3-11.6c-2.3,0-5.8,0.3-5.8,0.3L100.1,33.2z
	 M106.3,15.6c2.9,0,3.6,3.5,3.6,6.1c0,2.2-0.7,5.8-3.6,5.8V15.6z"/>
<path class="st0" d="M142.2,33.2l-5-23.5h-7.7l-5.6,23.5h6.5l0.5-3h4.3l0.5,3H142.2z M131.8,25.2l0.9-5.4c0.2-1.5,0.4-3,0.6-4.4h0.1
	c0.2,1.5,0.3,3,0.5,4.4l0.7,5.4H131.8z"/>
<path class="st0" d="M63.9,10c-1-0.4-2.3-0.6-3.4-0.6c-3.1,0-10.3,1.8-10.3,12.3c0,8,4.4,12,9.6,12c1.4,0,2.9-0.4,4.1-1.2l-0.1-6.1
	c-0.9,1.1-1.7,1.3-3.1,1.3c-3.2,0-4.2-3.5-4.2-6.2c0-2.6,1-6.2,4.3-6.2c1.3,0,2.1,0.5,3,1.4L63.9,10z"/>
<path class="st0" d="M13.7,10c-1-0.4-2.3-0.6-3.4-0.6C7.2,9.4,0,11.1,0,21.7c0,8,4.4,12,9.6,12c1.4,0,2.9-0.4,4.1-1.2l-0.1-6.1
	c-0.9,1.1-1.7,1.3-3.1,1.3c-3.2,0-4.2-3.5-4.2-6.2c0-2.6,1-6.2,4.3-6.2c1.3,0,2.1,0.5,3,1.4L13.7,10z"/>
<path class="st0" d="M120.5,10.8c-1.2,0-2.2-0.4-3.1-1v23.5h6.2V9.8h0C122.7,10.4,121.6,10.8,120.5,10.8z"/>
<path class="st1" d="M124.7,4.2c0,2.3-1.9,4.2-4.2,4.2c-2.3,0-4.2-1.9-4.2-4.2c0-2.3,1.9-4.2,4.2-4.2C122.8,0,124.7,1.9,124.7,4.2z"
	/>
</svg>
