<?xml version="1.0" encoding="utf-8"?>
<!-- Generator: Adobe Illustrator 26.0.3, SVG Export Plug-In . SVG Version: 6.00 Build 0)  -->
<svg version="1.1" id="Ebene_1" xmlns="http://www.w3.org/2000/svg" xmlns:xlink="http://www.w3.org/1999/xlink" x="0px" y="0px"
	 viewBox="0 0 1695.6 723" style="enable-background:new 0 0 1695.6 723;" xml:space="preserve">
<style type="text/css">
	.st0{fill:#01A3E0;}
</style>
<path class="st0" d="M1442.2,715.9c-29.9-0.1-59.9-3.6-89.5-11c-64.5-16.3-119.8-48.4-166.6-95.6c-15.8-16-29.1-34.1-42.6-52
	c-18.8-24.9-39-48.5-62.6-69.1c-24.8-21.7-52.8-38-83.2-50.4c-25.4-10.4-51.8-17.9-78.1-25.6c-38.8-11.3-77.1-23.9-112.7-43.4
	c-27.7-15.2-52.5-33.8-71.2-59.7c-15.6-21.6-24.9-45.6-28.4-71.9c-5.3-39.9,0.2-78.1,18.2-114.3c15.4-31.1,38.2-55.7,66.8-75
	c24.9-16.8,52.3-27.9,81.5-34.3c29.6-6.5,59.6-7.6,89.8-5c52.5,4.5,101.4,20.2,146.7,47.1c11.2,6.7,21.9,14.3,32.1,22.4
	c2.3,1.8,2,3,0.5,5c-20.5,28.1-40.9,56.2-61.2,84.4c-2,2.8-3.3,0.9-4.7-0.1c-15.2-10.9-31.1-20.6-48.1-28.4
	c-34.2-15.7-69.9-22-107.5-17.9c-21.1,2.3-41.2,7.2-59.6,18.1c-15.7,9.3-28,21.6-34.4,39c-10.1,27.4-4.2,59.9,25.5,79.9
	c16,10.8,33.5,18.6,51.5,25.3c28.7,10.8,58.4,18.6,87.7,27.2c52.7,15.5,102.3,37.3,145.8,71.7c22.7,18,43.4,38.1,63.2,59.1
	c20.2,21.3,38.3,44.5,58.4,65.9c22.8,24.3,47.6,46.3,76.6,63.2c21.2,12.3,43.7,21.2,67.7,25.9c23.2,4.5,46.6,5.1,70.1,2.2
	c19.9-2.5,38.9-7.7,56-18.4c19.6-12.2,33.1-29,36.2-52.6c3.2-23.9-4.1-44-22.6-59.8c-13.3-11.3-28.5-19.5-44.1-27
	c-30-14.5-60.9-27.2-91.5-40.4c-28.1-12.2-56.3-24.1-82.4-40.4c-24.2-15.2-46.3-32.8-63.8-55.7c-19.4-25.4-30.4-54-31.7-86
	c-2.1-52.4,13.8-98.5,48.9-137.7c23.4-26.1,52.2-44.4,84.8-56.7c34.2-12.9,69.8-17.6,106.2-16.4c28.2,1,55.8,5.3,83,13
	c37.5,10.7,72.2,27,103.8,49.9c3.3,2.4,6.4,5.2,9.8,7.5c2.7,1.8,2.3,3.2,0.6,5.6c-15.1,20.6-30.1,41.3-45.2,61.9
	c-5.1,7-10.4,14-15.3,21.2c-1.8,2.6-2.9,2.7-5.4,0.9c-18.2-13.4-37.7-24.7-58.7-33.1c-31.2-12.5-63.4-16.9-96.9-13.3
	c-19.1,2.1-37.6,6.4-54.7,15.4c-18.6,9.8-33.3,23.4-40,43.8c-9.3,28.5-1.6,55.7,25.1,74.5c15,10.5,31.5,18.1,48.2,25.2
	c29.9,12.7,59.9,25.2,89.9,37.6c27.7,11.4,54.5,24.5,79.6,40.9c23.8,15.6,45.3,33.8,62.3,56.8c20.7,27.9,31.2,59.3,32.1,94
	c0.9,34.6-5.3,67.5-21.7,98.2c-18,33.7-44.9,58.3-78.4,76.1c-21.3,11.4-44,19.1-67.6,24.3C1495.1,713.4,1469,715.8,1442.2,715.9z"/>
<path class="st0" d="M7.1,363.4c-0.3-50.6,7.5-95.6,24.3-138.9c23.4-60.5,60.7-110.6,112.7-149.7c31.3-23.5,65.8-40.7,103.1-52.2
	C288.8,9.8,331.5,5.5,374.8,7.6c25.7,1.2,51.2,4.5,76.3,10.4c41.7,9.9,80.6,26.3,116.5,49.8c11.5,7.5,22.4,15.7,33.2,24.2
	c2.3,1.8,2.4,2.9,0.8,5.3c-19.3,27.4-38.5,54.8-57.8,82.3c-1.9,2.6-3.8,5.2-5.6,7.9c-1.2,1.8-2,1.9-3.7,0.5
	c-14.7-12.1-30.2-23.1-47-32.2c-24.9-13.5-51.4-22.2-79.4-26.1c-25.9-3.6-51.9-5.1-78-2.6c-44.8,4.3-84.9,20-119.8,48.4
	c-29.5,24-50.9,54-65,89.3c-14.7,36.8-19.3,75.1-16.8,114.5c1.9,30.8,7.8,60.6,19.8,89.1c21.7,51.4,57.6,88.9,109.5,110.6
	c27.9,11.6,57,17,87,18.1c20.3,0.7,40.5-0.2,60.5-3.6c29.8-5,57.6-15.5,83.9-30.3c20.4-11.5,39.8-24.7,60.2-36.1
	c18-10.1,36.5-19.5,56.4-25.5c12.1-3.7,24.4-6,37-6.9c17-1.2,33.9-0.4,50.6,3.2c15.3,3.3,29.8,8.8,44,15.4
	c21.6,10.1,41.2,23.5,61.2,36.4c22.6,14.6,46,27.8,71.3,37.4c20.9,8,42.5,12.9,65,12.4c36.1-0.8,68.3-12.6,96.9-34.5
	c4.1-3.1,4-3.1,7.1,0.9c20.1,26,40.2,52,60.4,78c2,2.5,1.9,3.7-0.6,5.8c-24.5,20.9-51.8,37-81.9,48.4c-34.2,13-69.7,19.2-106.3,17.7
	c-28.2-1.2-55.1-8.4-81.1-19.3c-31.1-13.1-59.4-31.1-87.5-49.6c-15.5-10.2-31-20.5-48.2-27.7c-28.1-11.9-56-11.3-83.5,2.2
	c-17.2,8.4-32.9,19.1-48.8,29.7c-29.8,19.9-61.4,35.9-95.4,47.1c-23.5,7.8-47.6,13-72.2,15.7c-24.4,2.7-48.9,2.7-73.3,0.6
	c-28.4-2.4-56.3-7.9-83.4-16.8C181,679.1,133,648.4,93.8,604.1c-29.6-33.5-51.1-71.7-65.6-113.9c-10.9-31.7-17.3-64.2-19.8-97.6
	C7.6,381.5,7,370.4,7.1,363.4z"/>
</svg>
