<?xml version="1.0" encoding="UTF-8"?>
<svg id="Logo" xmlns="http://www.w3.org/2000/svg" viewBox="0 0 1189.85 415.9">
  <defs>
    <style>
      .cls-1 {
        fill: #01bba8;
      }

      .cls-1, .cls-2 {
        stroke-width: 0px;
      }

      .cls-2 {
        fill: #fff;
      }
    </style>
  </defs>
  <rect class="cls-1" width="1189.85" height="415.9" rx="103.98" ry="103.98"/>
  <g>
    <polygon class="cls-2" points="567.28 311.93 602.89 311.93 659.93 103.98 624.32 103.98 567.28 311.93"/>
    <path class="cls-2" d="M195.73,193.62l-32.29-6.34c-16-3.32-24.14-13.58-24.14-26.56,0-16,15.69-29.88,36.82-29.88,22.65,0,37.05,13.24,42.35,30.72l31.29-8.99c-4.53-23.24-26.26-53.12-73.94-53.12-38.63,0-71.83,28.97-71.83,63.68,0,31.39,21.13,52.21,52.82,58.55l31.69,6.04c17.81,3.92,27.77,14.79,27.77,28.37,0,16-13.88,28.67-38.93,28.67-29.88,0-45.87-21.13-49.8-41.35l-32.6,9.36c3.32,29.88,29.58,63.68,82.39,63.68,47.38,0,74.85-30.78,74.85-63.08,0-29.28-19.62-52.51-56.44-59.76Z"/>
    <path class="cls-2" d="M494.61,241.91c-.87,3.39-3.32,4.83-6.04,4.83s-5.09-1.5-6.04-4.53l-43.46-138.23h-40.74l-43.16,137.62c-.96,3-3.32,4.53-5.73,4.53-2.72,0-5.23-1.8-6.04-4.83l-36.52-137.32h-36.82l57.34,207.95h40.44l44.97-144.26c.93-3.03,3.32-4.53,5.73-4.53s4.8,1.52,5.73,4.53l44.97,144.26h40.44l57.04-207.95h-36.52l-35.61,137.93Z"/>
    <path class="cls-2" d="M784.78,282.65c-35.61,0-68.81-25.65-68.81-74.55s34.1-75.45,68.51-75.45c32.29,0,50.7,17.51,61.57,46.18l32.6-10.26c-12.37-37.73-42.56-69.11-94.16-69.11s-104.73,41.05-104.73,108.65,48.89,108.35,105.03,108.35c53.12,0,83.9-35.31,94.77-70.32l-31.99-9.66c-8.75,22.64-27.77,46.18-62.78,46.18Z"/>
    <path class="cls-2" d="M1016.46,103.98h-45.57l-78.47,207.95h37.12l16.3-44.67c.78-2.11,2.72-3.62,5.13-3.62h84.2c2.41,0,4.36,1.49,5.13,3.62l16.3,44.67h38.33l-78.47-207.95ZM1021.28,231.34h-56.44c-2.99-.01-4.89-3.09-3.92-5.73l26.86-74.24c.97-2.68,3.02-3.92,5.13-3.92s4.15,1.25,5.13,3.92l27.16,74.24c.98,2.68-.91,5.73-3.92,5.73Z"/>
  </g>
</svg>